<svg viewBox="0 0 800 700" xmlns="http://www.w3.org/2000/svg" xmlns:xlink="http://www.w3.org/1999/xlink" preserveAspectRatio="xMidYMid meet" role="img" aria-label="Mosaic coherence diagram">
  <defs>
    <!-- R=85, Corner=10 -->
    <path id="hex" d="M 82.11,-5.00 Q 85.00,0.00 82.11,5.00 L 45.39,68.61 Q 42.50,73.61 36.73,73.61 L -36.73,73.61 Q -42.50,73.61 -45.39,68.61 L -82.11,5.00 Q -85.00,0.00 -82.11,-5.00 L -45.39,-68.61 Q -42.50,-73.61 -36.73,-73.61 L 36.73,-73.61 Q 42.50,-73.61 45.39,-68.61 Z" />
    <style>
      text { font-family: Inter, Arial, sans-serif; text-anchor: middle; dominant-baseline: middle; font-size: 20px; fill: #FFFFFF; font-weight: 700; pointer-events: none; }
      .center-text { fill: #333333; font-size: 28px; }
      line { stroke: rgba(84,88,98,0.15); stroke-width: 1.5; }
    </style>
  </defs>

  <g transform="translate(400, 350)">
    <!-- connection lines (faint) -->
    <line x1="0" y1="0" x2="0" y2="-170" />
    <line x1="0" y1="0" x2="147" y2="-85" />
    <line x1="0" y1="0" x2="147" y2="85" />
    <line x1="0" y1="0" x2="0" y2="170" />
    <line x1="0" y1="0" x2="-147" y2="85" />
    <line x1="0" y1="0" x2="-147" y2="-85" />

    <!-- Top: Light Blue #84B5DD -->
    <g transform="translate(0, -170)">
      <use xlink:href="#hex" href="#hex" fill="#84B5DD" />
      <text y="5">Web Standards</text>
    </g>

    <!-- Top Right: Medium Blue #3A67A5 -->
    <g transform="translate(147, -85)">
      <use xlink:href="#hex" href="#hex" fill="#3A67A5" />
      <text y="5">Governance</text>
    </g>

    <!-- Bottom Right: Burgundy #7A1D26 -->
    <g transform="translate(147, 85)">
      <use xlink:href="#hex" href="#hex" fill="#7A1D26" />
      <text y="5">Protocols</text>
    </g>

    <!-- Bottom: Terra Cotta #D04C3F -->
    <g transform="translate(0, 170)">
      <use xlink:href="#hex" href="#hex" fill="#D04C3F" />
      <text y="5">Performance</text>
    </g>

    <!-- Bottom Left: Navy #1E3F6B -->
    <g transform="translate(-147, 85)">
      <use xlink:href="#hex" href="#hex" fill="#1E3F6B" />
      <text y="-10">Business</text>
      <text y="15">Models</text>
    </g>

    <!-- Top Left: Gold #F2B233 -->
    <g transform="translate(-147, -85)">
      <use xlink:href="#hex" href="#hex" fill="#F2B233" />
      <text y="5">Spaces</text>
    </g>

    <!-- Center: Transparent with Charcoal Border -->
    <g>
      <use xlink:href="#hex" href="#hex" fill="transparent" stroke="#333333" stroke-width="4" />
      <text class="center-text" y="5">Mosaic</text>
    </g>
  </g>
</svg>